<svg width="80" height="40" viewBox="0 0 80 40" xmlns="http://www.w3.org/2000/svg">
    <g fill="none" fill-rule="evenodd">
        <path d="M0 0h80v40H0z"/>
        <path d="M9.678 22.82H2.135a2.923 2.923 0 0 0 2.753 1.955c.864 0 1.63-.381 2.164-.977h2.312a4.885 4.885 0 0 1-9.266-2.933h7.544a2.925 2.925 0 0 0-2.754-1.956c-.865 0-1.635.382-2.172.978H.412a4.885 4.885 0 0 1 9.266 2.933zm1.205-5.585h2.386v1.523h.04c.211-.475.461-.893.985-1.256s1.144-.544 1.86-.544c.623 0 1.157.109 1.601.326.445.218.81.504 1.095.86.284.356.493.765.626 1.226.132.463.2.937.2 1.424v5.933h-2.388v-5.261c0-.276-.02-.566-.059-.87a2.335 2.335 0 0 0-.26-.82 1.683 1.683 0 0 0-.547-.603c-.232-.158-.54-.238-.924-.238-.385 0-.716.077-.995.227a2.13 2.13 0 0 0-.687.585c-.178.236-.314.51-.407.819-.093.31-.139.624-.139.94v5.22h-2.387v-9.491zm11.998 4.693c0 .368.054.737.163 1.105.11.367.272.697.49.986.217.289.491.526.825.71.333.183.73.276 1.19.276.46 0 .857-.093 1.19-.276.332-.184.607-.421.825-.71.218-.29.381-.62.49-.986a3.779 3.779 0 0 0 0-2.2 3.066 3.066 0 0 0-.49-.976 2.501 2.501 0 0 0-.826-.701c-.332-.177-.729-.265-1.19-.265-.46 0-.856.088-1.189.265a2.491 2.491 0 0 0-.826.7c-.217.29-.38.616-.489.977a3.779 3.779 0 0 0-.163 1.095zm-2.342 0c0-.75.131-1.43.394-2.042a4.77 4.77 0 0 1 1.065-1.567c.447-.435.98-.77 1.592-1.006a5.398 5.398 0 0 1 1.958-.355c.692 0 1.344.118 1.958.355a4.644 4.644 0 0 1 1.593 1.006c.448.434.803.956 1.066 1.567.262.612.393 1.293.393 2.042 0 .749-.13 1.433-.393 2.05a4.854 4.854 0 0 1-1.066 1.588 4.857 4.857 0 0 1-1.593 1.037 5.158 5.158 0 0 1-1.958.374c-.69 0-1.343-.125-1.958-.374a4.863 4.863 0 0 1-1.592-1.037 4.836 4.836 0 0 1-1.065-1.587c-.263-.618-.394-1.302-.394-2.051zm10.253-4.972h2.495l2.4 7.124h.037l2.42-7.124h2.417l-3.636 9.769h-2.439l-3.694-9.77zM47.187 22.4h-.535c-.383 0-.786.016-1.208.049a5.3 5.3 0 0 0-1.168.218 2.504 2.504 0 0 0-.892.476c-.237.205-.356.485-.356.84 0 .226.049.414.148.565.1.152.228.274.387.367.158.093.336.158.535.198.198.04.395.059.593.059.819 0 1.439-.218 1.862-.654.422-.435.634-1.03.634-1.782V22.4zm.04 3.129h-.06c-.238.422-.621.768-1.149 1.039-.528.27-1.128.406-1.801.406a5.12 5.12 0 0 1-1.199-.15 3.542 3.542 0 0 1-1.148-.494 2.857 2.857 0 0 1-.871-.911c-.232-.376-.348-.841-.348-1.396 0-.712.202-1.28.605-1.702.402-.423.92-.746 1.555-.971a8.788 8.788 0 0 1 2.109-.445 24.39 24.39 0 0 1 2.267-.11v-.237c0-.593-.215-1.032-.644-1.317-.429-.283-.941-.425-1.535-.425-.501 0-.983.105-1.445.317a3.888 3.888 0 0 0-1.149.772l-1.228-1.446a5.376 5.376 0 0 1 1.872-1.128 6.375 6.375 0 0 1 2.149-.376c.844 0 1.541.119 2.088.356.549.237.981.548 1.298.93.316.383.538.813.663 1.287.125.476.188.95.188 1.427v5.78h-2.217V25.53zm28.536-8.574c.844 0 1.541.119 2.088.356.55.237.981.548 1.298.93.316.383.538.813.663 1.287.125.476.188.95.188 1.427v5.78h-2.217V25.53h-.06c-.238.422-.62.768-1.149 1.039-.528.27-1.128.406-1.8.406a5.12 5.12 0 0 1-1.2-.15 3.542 3.542 0 0 1-1.148-.494 2.857 2.857 0 0 1-.87-.911c-.233-.376-.349-.841-.349-1.396 0-.712.202-1.28.605-1.702.402-.423.92-.746 1.555-.971a8.788 8.788 0 0 1 2.11-.445 24.39 24.39 0 0 1 2.266-.11v-.237c0-.593-.215-1.032-.644-1.317-.429-.283-.94-.425-1.535-.425-.5 0-.983.105-1.445.317a3.888 3.888 0 0 0-1.149.772l-1.228-1.446a5.376 5.376 0 0 1 1.872-1.128 6.375 6.375 0 0 1 2.15-.376zM64.481 13v8.246h.06l3.164-4.338h3.01l-3.674 4.63 4.318 5.139h-3.107L64.54 21.87h-.059v4.806h-2.344V13h2.344zm13.262 9.4h-.535c-.383 0-.786.017-1.208.05a5.3 5.3 0 0 0-1.168.218 2.504 2.504 0 0 0-.892.476c-.237.205-.356.485-.356.84 0 .226.05.414.148.565.1.152.228.274.387.367.158.093.336.158.535.198.198.04.395.059.593.059.82 0 1.44-.218 1.862-.654.422-.435.634-1.03.634-1.782V22.4zm-27.546-3.597v-1.915h1.642l-.039-2.912h2.305l.04 2.912h2.344v1.915h-2.345v4.558c0 .426.075.778.225 1.057.15.28.485.42 1.007.42.155 0 .325-.017.507-.05.182-.034.345-.083.49-.15l.077 1.876a3.9 3.9 0 0 1-.742.19c-.288.046-.56.07-.82.07-.627 0-1.134-.09-1.526-.27-.39-.18-.7-.426-.928-.738a2.774 2.774 0 0 1-.468-1.078 6.376 6.376 0 0 1-.127-1.307v-4.578h-1.642zm7.914 7.874h2.344v-9.474h-2.344v9.474zm2.557-12.293a1.385 1.385 0 1 1-2.77 0 1.385 1.385 0 0 1 2.77 0z" fill="#292929"/>
    </g>
</svg>
