<svg width="80" height="40" viewBox="0 0 80 40" xmlns="http://www.w3.org/2000/svg">
    <g fill="none" fill-rule="evenodd">
        <path d="M0 0h80v40H0z"/>
        <path d="M6.612 13a6.61 6.61 0 0 1 0 13.222 6.611 6.611 0 0 1-6.608-6.378L0 19.61A6.61 6.61 0 0 1 6.612 13zm0 .517A6.102 6.102 0 0 0 .517 19.61a6.094 6.094 0 1 0 6.095-6.093zm.007 3.02c.027 0 .053.006.076.02l.031.023 2.829 2.83a.29.29 0 0 1 .084.201c0 .052-.014.101-.04.144l-.045.06-2.828 2.826a.144.144 0 0 1-.107.044.152.152 0 0 1-.145-.107l-.007-.045v-.91c0-.027.007-.053.02-.076l.024-.03 1.594-1.595a.439.439 0 0 0 .057-.552l-.054-.067-1.598-1.595a.162.162 0 0 1-.038-.068l-.005-.04v-.912c0-.06.037-.117.094-.14a.143.143 0 0 1 .058-.012zm2.002-.001c.026 0 .052.007.075.02l.03.025 2.831 2.829a.287.287 0 0 1 .035.361l-.036.044-2.83 2.826a.14.14 0 0 1-.105.044.151.151 0 0 1-.146-.107l-.006-.044v-.911c0-.027.007-.052.02-.075l.023-.032 1.595-1.594a.447.447 0 0 0 .13-.311.446.446 0 0 0-.073-.24l-.054-.067-1.598-1.596a.153.153 0 0 1-.038-.069L8.47 17.6v-.912a.146.146 0 0 1 .094-.139.13.13 0 0 1 .058-.013zm-4.003 0a.15.15 0 0 1 .075.02l.03.024 2.832 2.83a.285.285 0 0 1 .033.361l-.035.044-2.828 2.826a.148.148 0 0 1-.108.044.12.12 0 0 1-.056-.01.15.15 0 0 1-.089-.097l-.006-.045v-.91a.15.15 0 0 1 .02-.076l.024-.03 1.594-1.595a.448.448 0 0 0 .129-.31.445.445 0 0 0-.074-.242l-.053-.067-1.597-1.595a.162.162 0 0 1-.038-.068l-.005-.04v-.912a.15.15 0 0 1 .094-.14.143.143 0 0 1 .058-.012zm-2.002 0a.15.15 0 0 1 .075.02l.03.024 2.832 2.83a.296.296 0 0 1 .083.201.307.307 0 0 1-.04.144l-.045.06-2.83 2.826a.144.144 0 0 1-.106.044.113.113 0 0 1-.057-.012.148.148 0 0 1-.087-.095l-.006-.045v-5.845a.149.149 0 0 1 .093-.14.147.147 0 0 1 .058-.012zm13.43 5.907h.581v-6.078h-.581v6.078zm2.274-4.392v.757h.021c.105-.269.297-.495.546-.642.258-.16.555-.245.86-.243.262-.007.523.033.77.12.192.07.363.184.498.335.128.154.22.336.264.532.053.232.08.47.076.707v2.825h-.54V19.7a2.558 2.558 0 0 0-.052-.524 1.11 1.11 0 0 0-.179-.42.844.844 0 0 0-.345-.282 1.238 1.238 0 0 0-.54-.103 1.362 1.362 0 0 0-.574.116 1.262 1.262 0 0 0-.425.315 1.44 1.44 0 0 0-.271.477 1.92 1.92 0 0 0-.107.601v2.564h-.54v-4.39l.538-.002zm4.561 3.176c.096.201.242.375.424.503.192.131.41.223.637.268.258.056.522.083.787.081.175-.002.35-.024.52-.067a1.85 1.85 0 0 0 .526-.218c.16-.099.298-.229.405-.384a.97.97 0 0 0 .163-.567.839.839 0 0 0-.115-.445 1.079 1.079 0 0 0-.299-.314 1.784 1.784 0 0 0-.407-.21 4.374 4.374 0 0 0-.436-.13l-1.358-.334a4.112 4.112 0 0 1-.517-.17 1.507 1.507 0 0 1-.439-.273 1.29 1.29 0 0 1-.303-.418 1.433 1.433 0 0 1-.116-.605c.005-.177.034-.352.086-.52.063-.21.172-.402.32-.564.18-.194.4-.345.645-.447a2.55 2.55 0 0 1 1.05-.184c.291-.002.582.04.861.122.26.073.504.194.718.358.204.16.372.363.49.593.127.256.19.538.184.823h-.583a1.362 1.362 0 0 0-.525-1.044 1.618 1.618 0 0 0-.52-.264 2.05 2.05 0 0 0-.618-.088 2.473 2.473 0 0 0-.575.064 1.414 1.414 0 0 0-.487.204 1.044 1.044 0 0 0-.337.37c-.09.177-.134.373-.127.572a.896.896 0 0 0 .072.372.763.763 0 0 0 .201.267c.088.076.187.136.295.18.115.046.233.084.354.11l1.486.367c.21.053.413.123.612.209.182.076.352.18.504.306.145.122.262.276.341.448.088.201.13.42.124.64a2.25 2.25 0 0 1-.022.271 1.268 1.268 0 0 1-.103.363c-.06.138-.137.268-.23.387a1.435 1.435 0 0 1-.41.354 2.414 2.414 0 0 1-.645.256c-.302.07-.612.104-.923.098a3.875 3.875 0 0 1-1-.123 2.18 2.18 0 0 1-.787-.381c-.219-.174-.39-.4-.499-.657a2.126 2.126 0 0 1-.15-.963h.581c-.014.268.036.537.145.784zm4.857 1.216h.54v-4.396h-.54v4.396zm0-5.217h.54v-.861h-.54v.861zm3.31.822v.447h-.893v2.963a.945.945 0 0 0 .073.413c.048.1.168.156.362.167.152 0 .306-.007.459-.02v.446l-.12.003-.12.007a2.356 2.356 0 0 1-.237.011c-.357 0-.606-.07-.748-.209-.142-.139-.21-.397-.204-.772l-.005-3.009h-.767v-.447h.767V16.73h.54v1.32h.894zm3.828 1.303a1.628 1.628 0 0 0-.276-.5 1.356 1.356 0 0 0-.433-.348 1.22 1.22 0 0 0-.577-.133 1.245 1.245 0 0 0-.587.133 1.367 1.367 0 0 0-.433.349 1.75 1.75 0 0 0-.284.503 2.4 2.4 0 0 0-.14.585h2.836a1.938 1.938 0 0 0-.106-.59zm-2.65 1.637c.05.202.139.392.259.56.12.167.273.306.449.41.159.091.335.146.516.16l.137.003c.334.02.662-.09.916-.307.23-.221.39-.506.458-.818h.54c-.081.443-.3.849-.625 1.16-.303.275-.733.412-1.29.412a2.037 2.037 0 0 1-.895-.183 1.64 1.64 0 0 1-.617-.503 2.19 2.19 0 0 1-.354-.742 3.344 3.344 0 0 1-.114-.89 3.194 3.194 0 0 1 .114-.853c.072-.268.192-.521.354-.746.162-.221.373-.402.617-.527.279-.14.587-.21.899-.2a1.736 1.736 0 0 1 1.51.768c.162.24.276.508.337.79.068.296.097.599.085.903h-3.376c0 .203.028.406.08.603zm6.29-2.086a.859.859 0 0 0-.25-.301 1.037 1.037 0 0 0-.361-.176 1.708 1.708 0 0 0-.794-.016 1.097 1.097 0 0 0-.336.128.645.645 0 0 0-.339.592.499.499 0 0 0 .09.304.797.797 0 0 0 .225.208c.094.059.194.107.299.142.107.037.206.066.298.089l.715.162c.156.024.309.066.455.125.145.056.28.135.4.234.118.099.215.22.286.358.076.157.114.329.11.503.006.215-.05.427-.162.61a1.325 1.325 0 0 1-.414.41 1.757 1.757 0 0 1-.567.227 2.964 2.964 0 0 1-.623.067 2.015 2.015 0 0 1-1.257-.368c-.322-.245-.504-.638-.551-1.178h.54c0 .32.146.622.396.823.26.19.576.288.898.276.136-.001.27-.015.405-.041a1.29 1.29 0 0 0 .387-.147.89.89 0 0 0 .293-.26.633.633 0 0 0 .114-.386.611.611 0 0 0-.08-.33.734.734 0 0 0-.216-.22 1.293 1.293 0 0 0-.312-.148 3.649 3.649 0 0 0-.353-.103l-.69-.153a4.133 4.133 0 0 1-.486-.16 1.527 1.527 0 0 1-.386-.22.913.913 0 0 1-.26-.324 1.195 1.195 0 0 1 .055-1.043c.097-.156.23-.287.388-.383.165-.098.345-.17.532-.213a2.61 2.61 0 0 1 .584-.067c.209-.002.417.026.618.084.183.052.353.14.502.26.146.122.264.273.345.444.09.195.139.406.145.62h-.54a1.017 1.017 0 0 0-.102-.43zm7.598-1.327a1.705 1.705 0 0 0-.425-.463 1.859 1.859 0 0 0-.554-.286 2.038 2.038 0 0 0-.634-.098 2.2 2.2 0 0 0-1.04.23 2.094 2.094 0 0 0-.712.61 2.621 2.621 0 0 0-.41.855 3.669 3.669 0 0 0 0 1.956c.084.31.222.601.41.86.188.255.43.463.712.61.322.161.679.24 1.04.23a1.795 1.795 0 0 0 1.354-.572c.168-.18.303-.389.399-.616.105-.243.17-.5.197-.763h.579a3.33 3.33 0 0 1-.264 1.014 2.516 2.516 0 0 1-.528.766 2.221 2.221 0 0 1-.762.487 2.668 2.668 0 0 1-.976.172 2.886 2.886 0 0 1-1.258-.26 2.601 2.601 0 0 1-.898-.696 2.966 2.966 0 0 1-.538-1.006 4.11 4.11 0 0 1 0-2.406c.113-.368.296-.71.538-1.01a2.6 2.6 0 0 1 .898-.7c.394-.18.824-.27 1.258-.26.287 0 .573.042.847.128.27.083.524.213.75.382.226.17.416.38.562.62.156.256.253.544.286.842h-.578a1.963 1.963 0 0 0-.253-.626zm2.883.957c-.19.105-.354.25-.48.426a1.898 1.898 0 0 0-.29.601 2.426 2.426 0 0 0 0 1.372c.06.216.159.42.29.601.126.176.29.321.48.427.42.216.92.216 1.342 0 .189-.106.353-.25.48-.427.13-.182.228-.385.289-.6a2.48 2.48 0 0 0 0-1.373 1.942 1.942 0 0 0-.29-.6 1.474 1.474 0 0 0-.48-.427 1.465 1.465 0 0 0-1.341 0zm1.56-.422c.252.12.474.291.653.503.18.218.316.468.4.738a3.013 3.013 0 0 1 0 1.798c-.084.27-.22.52-.4.737a1.883 1.883 0 0 1-.652.498 2.247 2.247 0 0 1-1.78 0 1.88 1.88 0 0 1-.651-.498 2.172 2.172 0 0 1-.402-.737 3.045 3.045 0 0 1 0-1.798c.085-.27.222-.52.402-.738.179-.212.4-.383.65-.503a2.214 2.214 0 0 1 1.78 0zm2.515-.059v.757h.022c.104-.27.296-.496.545-.642a1.6 1.6 0 0 1 .86-.243c.261-.007.522.033.77.12.191.068.361.184.497.335.13.153.22.336.264.532.053.232.08.47.077.707v2.825h-.54V19.7a2.49 2.49 0 0 0-.052-.524 1.115 1.115 0 0 0-.178-.42.846.846 0 0 0-.346-.282 1.236 1.236 0 0 0-.54-.103 1.368 1.368 0 0 0-.574.116 1.249 1.249 0 0 0-.426.315 1.44 1.44 0 0 0-.27.477 1.921 1.921 0 0 0-.109.601v2.564h-.539v-4.39l.54-.002zm6.57.85a.876.876 0 0 0-.25-.3 1.064 1.064 0 0 0-.36-.176 1.708 1.708 0 0 0-.794-.016 1.091 1.091 0 0 0-.335.128.738.738 0 0 0-.247.234.655.655 0 0 0-.093.358.522.522 0 0 0 .087.304.819.819 0 0 0 .227.208c.094.059.194.107.3.142.106.037.206.066.297.089l.715.162c.155.024.309.066.455.125.145.056.28.135.4.234s.216.22.286.358c.078.156.116.329.111.503.006.215-.05.428-.163.61a1.343 1.343 0 0 1-.413.41 1.757 1.757 0 0 1-.567.227 2.97 2.97 0 0 1-.623.067 2.027 2.027 0 0 1-1.258-.368c-.322-.246-.505-.638-.55-1.178h.54c.002.32.147.622.396.823.26.19.576.288.898.276.136-.001.27-.015.404-.041a1.28 1.28 0 0 0 .387-.147.909.909 0 0 0 .294-.26.707.707 0 0 0 .035-.715.74.74 0 0 0-.218-.221 1.332 1.332 0 0 0-.313-.148 3.714 3.714 0 0 0-.352-.103l-.69-.153a4.103 4.103 0 0 1-.484-.16 1.522 1.522 0 0 1-.389-.22.9.9 0 0 1-.26-.324 1.068 1.068 0 0 1-.093-.473c-.006-.2.046-.398.15-.57.097-.156.229-.287.387-.383.165-.098.345-.17.533-.213a2.6 2.6 0 0 1 .583-.067c.209-.002.417.026.617.084.183.052.355.14.502.26.148.12.265.272.346.444.09.195.139.406.145.62h-.541a1.002 1.002 0 0 0-.102-.43zm4.886 3.547.001-.792h-.02c-.133.284-.348.52-.619.677a1.74 1.74 0 0 1-.896.235 1.958 1.958 0 0 1-.71-.116 1.169 1.169 0 0 1-.478-.328 1.338 1.338 0 0 1-.268-.52 2.623 2.623 0 0 1-.086-.7v-2.856h.541v2.863c.011.398.103.699.277.903.174.205.473.307.897.307a1.13 1.13 0 0 0 .596-.15c.165-.1.305-.234.41-.396.111-.173.191-.364.237-.565.051-.214.077-.433.077-.652v-2.31h.54v4.4h-.499zm1.519-.005h.54v-6.078h-.54v6.078zm3.31-4.395v.447h-.893v2.963a.945.945 0 0 0 .073.413c.047.1.168.156.362.167.152 0 .306-.007.458-.02v.446l-.12.003-.117.007c-.08.008-.16.011-.238.011-.358 0-.607-.07-.75-.209-.141-.139-.21-.397-.203-.772l-.006-3.009h-.766v-.447h.766V16.73h.54v1.32h.894zm.785 4.395h.541v-4.396h-.541v4.396zm0-5.217h.541v-.861h-.541v.861zm2.095.825v.757h.022c.104-.269.295-.495.543-.642.258-.16.556-.245.861-.243.261-.007.523.033.77.12.191.068.362.183.498.335.129.153.22.336.263.532.054.232.079.47.076.707v2.825h-.539V19.7a2.49 2.49 0 0 0-.052-.524 1.077 1.077 0 0 0-.178-.42.847.847 0 0 0-.344-.282 1.247 1.247 0 0 0-.542-.103 1.362 1.362 0 0 0-.574.116 1.235 1.235 0 0 0-.425.315c-.121.14-.213.302-.272.477a1.926 1.926 0 0 0-.108.601v2.564h-.54v-4.39l.541-.002zm6.422 3.743c.175-.097.325-.23.443-.392.122-.168.213-.357.267-.558a2.29 2.29 0 0 0 .09-.648c0-.218-.026-.436-.076-.648a1.892 1.892 0 0 0-.246-.588 1.318 1.318 0 0 0-.439-.427 1.237 1.237 0 0 0-.65-.163 1.283 1.283 0 0 0-1.106.571c-.122.177-.21.375-.26.584a2.81 2.81 0 0 0-.08.67c0 .22.028.437.084.65.053.2.142.39.264.557.12.162.273.296.45.392.2.104.422.155.647.15.214.004.425-.047.612-.15zm1.234 1.17a1.708 1.708 0 0 1-.339.662 1.471 1.471 0 0 1-.602.417 2.528 2.528 0 0 1-.908.146c-.217 0-.434-.025-.646-.077a1.839 1.839 0 0 1-.568-.236 1.417 1.417 0 0 1-.417-.41 1.262 1.262 0 0 1-.192-.602h.537a.96.96 0 0 0 .465.681c.12.07.251.12.387.15.142.03.288.046.434.046.5 0 .86-.142 1.082-.428.221-.285.332-.695.333-1.229l.004-.597h-.025a1.562 1.562 0 0 1-.549.656 1.46 1.46 0 0 1-.845.248 2.131 2.131 0 0 1-.902-.174 1.679 1.679 0 0 1-.617-.48 1.98 1.98 0 0 1-.353-.72 3.406 3.406 0 0 1-.11-.882 2.72 2.72 0 0 1 .131-.854c.082-.258.212-.498.383-.706.17-.204.381-.367.621-.478a1.96 1.96 0 0 1 .847-.173 1.484 1.484 0 0 1 .858.259c.118.082.225.178.32.285.09.102.162.216.216.34h.021v-.756H80v4.034c.003.296-.033.591-.107.877z" fill="#040505"/>
    </g>
</svg>
